<svg width="24" height="24" viewBox="0 0 24 24" fill="none" xmlns="http://www.w3.org/2000/svg">
<path d="M18.563 10.0528C18.5374 9.98294 18.4778 9.93098 18.405 9.91516C18.3327 9.89933 18.2565 9.92175 18.204 9.9745L13.7179 14.4593C13.6388 14.5395 13.6322 14.6658 13.7031 14.7521L18.443 20.5477C18.9325 21.0301 19.3919 21.2751 19.8089 21.2751C20.3719 21.2751 20.8237 20.8222 21.1231 20.5232C21.9617 19.6816 21.8067 19.0863 21.5915 18.2637L18.563 10.0528Z" fill="#45596B"/>
<path d="M9.30127 10.3274C9.34189 10.3606 9.39094 10.377 9.43973 10.377C9.49564 10.377 9.55182 10.3553 9.59402 10.3131L14.0651 5.84097C14.1176 5.78875 14.1395 5.71279 14.124 5.64027C14.1079 5.56774 14.0564 5.50813 13.9871 5.48202L5.79041 2.42875C5.45916 2.34093 5.14584 2.25838 4.83912 2.25838C4.52923 2.25838 4.10118 2.3309 3.53732 2.89688C2.82813 3.60686 2.29248 4.34664 3.52782 5.59912L9.30127 10.3274Z" fill="#45596B"/>
<path d="M23.4811 0.580742C23.0903 0.189358 22.5984 0.107072 22.2558 0.107072C21.636 0.107072 21.0025 0.370808 20.5616 0.81283L9.71752 11.6453C9.69906 11.6574 9.67559 11.6743 9.66398 11.6856L5.74038 15.6013C5.6122 15.7282 5.4268 15.7796 5.25036 15.7366L1.42249 14.779C1.27664 14.7418 1.18196 14.7265 1.09651 14.7265C0.932204 14.7265 0.80139 14.7864 0.676116 14.9256C0.661083 14.943 0.612555 14.9931 0.550313 15.0533C0.170533 15.4214 0.104335 15.5805 0.0898299 15.687C0.0782255 15.7743 0.119368 15.8595 0.195324 15.9049L5.0784 18.778C5.1533 18.8226 5.2166 18.8861 5.2617 18.9613L8.13748 23.8473C8.17757 23.9151 8.25009 23.9544 8.32552 23.9544C8.34979 23.9544 8.37431 23.9501 8.39805 23.942C8.49247 23.9085 8.67023 23.8151 9.12543 23.3826C9.20245 23.304 9.23541 23.2531 9.24781 23.2328C9.27339 23.1943 9.28631 23.1476 9.28368 23.1001C9.28209 23.0727 9.25361 22.9271 9.22407 22.7876L8.31576 18.7809C8.27647 18.6079 8.3279 18.4294 8.45317 18.303L12.4353 14.3061C12.4435 14.2961 12.4588 14.2684 12.4649 14.257L23.2264 3.47868C23.9711 2.73309 24.2584 1.35903 23.4811 0.580742Z" fill="#647F94"/>
</svg>
