<svg width="24" height="24" viewBox="0 0 24 24" fill="none" xmlns="http://www.w3.org/2000/svg">
<path d="M3.81982 21.5423V23.25C3.81982 23.664 4.15583 24 4.56982 24H6.96157C7.37556 24 7.71157 23.664 7.71157 23.25V21.5423H3.81982Z" fill="#454545"/>
<path d="M16.2885 21.5423V23.25C16.2885 23.664 16.6245 24 17.0384 24H19.4302C19.8442 24 20.1802 23.664 20.1802 23.25V21.5423H16.2885Z" fill="#454545"/>
<path d="M23.3265 6.20776C23.1112 6.20776 22.9372 6.03373 22.9372 5.81852C22.9372 5.54327 22.713 5.31975 22.4385 5.31975H22.0109C21.7957 5.31975 21.6217 5.14573 21.6217 4.93052C21.6217 4.71531 21.7957 4.54129 22.0109 4.54129H22.4385C23.1427 4.54129 23.7157 5.11431 23.7157 5.8178C23.7157 6.03301 23.5417 6.20776 23.3265 6.20776Z" fill="#CACACA"/>
<path d="M23.9761 5.74949H22.4146V9.96598H23.9761V5.74949Z" fill="#6F6F6F"/>
<path d="M0.673534 6.20776C0.888791 6.20776 1.06277 6.03373 1.06277 5.81852C1.06277 5.54327 1.28629 5.31975 1.56154 5.31975H1.98905C2.20431 5.31975 2.37829 5.14573 2.37829 4.93052C2.37829 4.71531 2.20426 4.54129 1.98905 4.54129H1.56154C0.857274 4.54129 0.284302 5.11431 0.284302 5.8178C0.284253 6.03301 0.458277 6.20776 0.673534 6.20776Z" fill="#CACACA"/>
<path d="M1.58484 5.74949H0.0233154V9.96598H1.58484V5.74949Z" fill="#6F6F6F"/>
<path d="M20.5289 0H3.47093C2.64292 0 1.97095 0.671247 1.97095 1.49998V14.991H22.0289V1.49998C22.0289 0.671247 21.3577 0 20.5289 0Z" fill="#86DAF1"/>
<path d="M1.97095 19.9088V20.3212C1.97095 21.1493 2.64297 21.8212 3.47093 21.8212H20.5289C21.3577 21.8212 22.0289 21.1492 22.0289 20.3212V19.9088H1.97095Z" fill="#ED6262"/>
<path d="M22.0289 17.7525H1.97095V19.9058H22.0289V17.7525Z" fill="#CD484B"/>
<path d="M22.0289 14.5095H1.97095V17.7555H22.0289V14.5095Z" fill="#F3F3F3"/>
<path d="M22.0289 4.19923H1.97095V13.572H22.0289V4.19923Z" fill="#6F6F6F"/>
<path d="M12.5356 4.19923H11.4646V13.572H12.5356V4.19923Z" fill="#454545"/>
<path d="M22.0289 13.572H1.97095V14.5095H22.0289V13.572Z" fill="#86DAF1"/>
<path d="M4.13253 19.4183C4.45645 19.4183 4.71904 19.1557 4.71904 18.8317C4.71904 18.5078 4.45645 18.2452 4.13253 18.2452C3.80861 18.2452 3.54602 18.5078 3.54602 18.8317C3.54602 19.1557 3.80861 19.4183 4.13253 19.4183Z" fill="#F3F3F3"/>
<path d="M5.62508 19.4183C5.949 19.4183 6.21159 19.1557 6.21159 18.8317C6.21159 18.5078 5.949 18.2452 5.62508 18.2452C5.30116 18.2452 5.03857 18.5078 5.03857 18.8317C5.03857 19.1557 5.30116 19.4183 5.62508 19.4183Z" fill="#FFE21F"/>
<path d="M18.375 19.4183C18.6989 19.4183 18.9615 19.1557 18.9615 18.8317C18.9615 18.5078 18.6989 18.2452 18.375 18.2452C18.051 18.2452 17.7885 18.5078 17.7885 18.8317C17.7885 19.1557 18.051 19.4183 18.375 19.4183Z" fill="#FFE21F"/>
<path d="M19.8659 19.4183C20.1898 19.4183 20.4524 19.1557 20.4524 18.8317C20.4524 18.5078 20.1898 18.2452 19.8659 18.2452C19.542 18.2452 19.2794 18.5078 19.2794 18.8317C19.2794 19.1557 19.542 19.4183 19.8659 19.4183Z" fill="#F3F3F3"/>
<path d="M19.8795 15.3172H18.4417C17.9917 15.3172 17.6265 15.6825 17.6265 16.1325C17.6265 16.5825 17.9909 16.947 18.4417 16.947H19.8795C20.3295 16.947 20.6947 16.5825 20.6947 16.1325C20.694 15.6825 20.3295 15.3172 19.8795 15.3172Z" fill="#FFBD49"/>
<path d="M5.43894 15.3172H4.00116C3.55117 15.3172 3.18591 15.6825 3.18591 16.1325C3.18591 16.5825 3.5504 16.947 4.00116 16.947H5.43894C5.88893 16.947 6.25341 16.5825 6.25341 16.1325C6.25419 15.6825 5.88893 15.3172 5.43894 15.3172Z" fill="#FFBD49"/>
<path d="M17.7157 0.654762H5.86197C5.06398 0.654762 4.41748 1.30126 4.41748 2.09925C4.41748 2.89725 5.06398 3.54452 5.86197 3.54452H17.7157C18.5137 3.54452 19.1602 2.89802 19.1602 2.09925C19.1603 1.30198 18.5138 0.654762 17.7157 0.654762Z" fill="#454545"/>
<path opacity="0.1" d="M22.0289 4.19923H1.97095V8.74124C1.97095 9.16949 2.29869 9.56099 2.73593 9.57897C3.19119 9.60672 3.57365 9.24224 3.57365 8.78697V7.31773C3.57365 6.93522 3.89241 6.64421 4.28391 6.65325C4.28391 6.65325 4.28391 6.65325 4.2929 6.65325C4.2929 6.65325 4.2929 6.65325 4.30189 6.65325C4.68441 6.64426 5.01215 6.93527 5.01215 7.31773V8.94147C5.01215 9.3787 5.3309 9.76122 5.75842 9.78824C6.21518 9.80622 6.58866 9.453 6.60069 9.00823V6.83922C6.60069 6.38323 6.97944 6.01947 7.4407 6.03972C7.87121 6.06525 8.19369 6.44999 8.19369 6.87973V8.95123C8.20645 9.36899 8.5252 9.73796 8.94518 9.76499C9.40943 9.78297 9.78291 9.41926 9.78291 8.96399L9.7919 7.19925C9.7919 6.74399 10.1654 6.3795 10.6296 6.39749C11.0579 6.42451 11.3856 6.80697 11.3856 7.24426V9.1545C11.3946 9.58274 11.7501 9.92852 12.1776 9.92852C12.6239 9.92852 12.9786 9.56404 12.9786 9.12753V6.85203C12.9786 6.50553 13.2359 6.18755 13.7068 6.18755C14.0713 6.16053 14.3804 6.46057 14.3804 6.81606V9.04279C14.3804 9.48002 14.6991 9.86181 15.1274 9.88956C15.5916 9.90754 15.9741 9.54383 15.9741 9.08857V7.42804C15.9741 7.08005 16.2336 6.76357 16.6934 6.76357C17.0849 6.76357 17.4036 7.08232 17.4036 7.46483V8.74284C17.4036 9.17108 17.7314 9.56259 18.1596 9.58057C18.6149 9.60832 19.0064 9.24383 19.0064 8.78857V7.31933C19.0064 6.93682 19.3251 6.64581 19.7077 6.65485C19.7166 6.65485 19.7166 6.65485 19.7166 6.65485C19.7256 6.65485 19.7256 6.65485 19.7346 6.65485C20.1171 6.64586 20.4359 6.93686 20.4359 7.31933V8.94306C20.4359 9.3803 20.7636 9.76281 21.1919 9.78983C21.6561 9.80781 22.0296 9.44333 22.0296 8.98807V4.19923H22.0289Z" fill="white"/>
</svg>
