<svg width="24" height="24" viewBox="0 0 24 24" fill="none" xmlns="http://www.w3.org/2000/svg">
<g clip-path="url(#clip0)">
<path d="M23.665 13.0341C23.6298 12.3216 23.365 11.639 22.93 11.0728C21.949 9.79551 21.7577 8.78146 21.7577 8.78146C20.9875 6.76318 20.3027 5.41838 19.7995 4.56488C19.2699 3.66859 18.3542 3.06486 17.3214 2.93212C15.2446 2.66363 8.75395 2.66363 6.67718 2.93212C5.64515 3.06563 4.72938 3.66936 4.19985 4.56488C3.69657 5.41838 3.0126 6.76318 2.24156 8.78146C2.24156 8.78146 2.05032 9.79551 1.06929 11.0728C0.635047 11.639 0.36951 12.3216 0.335043 13.0341C0.260791 14.5799 0.708573 14.9196 1.10908 18.4177C1.1406 18.6929 1.37307 18.8999 1.65059 18.8999H22.3503C22.6278 18.8999 22.8603 18.6922 22.8918 18.4177C23.0043 17.4367 23.3381 15.4469 23.3381 15.4469C23.6305 14.4576 23.6943 13.6513 23.665 13.0341Z" fill="#E95353"/>
<path d="M21.322 8.70049C20.7145 7.18022 20.095 5.85268 19.4785 4.7944C19.0112 3.99412 18.187 3.43539 17.275 3.31314C15.1937 3.03711 8.79231 3.03939 6.72598 3.31314C5.81398 3.43539 4.98967 3.99417 4.52241 4.7944C3.89765 5.86617 3.2699 7.21169 2.67139 8.70049C8.8785 9.18874 15.1141 9.18874 21.322 8.70049Z" fill="#168DE2"/>
<path d="M20.4406 10.4585C20.2036 10.5328 19.9831 10.637 19.7986 10.7405C19.4626 10.928 19.1176 11.1028 18.7576 11.2393C18.1606 11.4658 18.0593 11.8041 18.0593 11.8041C18.0413 11.8273 18.0241 11.8506 18.0075 11.8746C17.5545 12.5473 18.1493 13.4428 18.9526 13.3288C20.1143 13.1646 21.0713 12.8278 21.5574 12.6328C21.8356 12.5211 22.0531 12.2886 22.1244 11.9968C22.1311 11.9691 22.1371 11.9413 22.1423 11.9143C22.3209 10.9513 21.3759 10.1668 20.4406 10.4585Z" fill="white"/>
<path d="M21.6819 15.8489H20.3896C20.1953 15.8489 20.0978 16.0836 20.2351 16.2217L21.5274 17.514C21.6646 17.6512 21.9001 17.5537 21.9001 17.3595V16.0672C21.9001 15.9464 21.8026 15.8489 21.6819 15.8489Z" fill="#FFE21F"/>
<path d="M22.8916 18.4162C22.8601 18.6922 22.6268 18.8999 22.3493 18.8999H19.863V20.343C19.863 20.8537 20.277 21.2685 20.7886 21.2685H22.3501C22.8609 21.2685 23.2757 20.8545 23.2757 20.343V15.8256C23.1729 16.4511 22.9734 17.7014 22.8916 18.4162Z" fill="#454545"/>
<path d="M23.9823 7.69022C23.9073 7.3542 23.5915 7.12622 23.2473 7.12622H22.6232C22.2235 7.12622 21.8995 7.45025 21.8995 7.84998V8.29472H21.5687L21.7585 8.7455H22.486C22.8625 8.7455 23.2353 8.66448 23.5773 8.50776C23.8855 8.36675 24.058 8.02923 23.9823 7.69022Z" fill="#ED6262"/>
<path d="M20.8501 12.5338C21.3525 12.5338 21.7599 12.1265 21.7599 11.6241C21.7599 11.1216 21.3525 10.7143 20.8501 10.7143C20.3476 10.7143 19.9403 11.1216 19.9403 11.6241C19.9403 12.1265 20.3476 12.5338 20.8501 12.5338Z" fill="#FFBD49"/>
<path d="M19.0202 13.0101C19.3893 13.0101 19.6885 12.7109 19.6885 12.3418C19.6885 11.9727 19.3893 11.6736 19.0202 11.6736C18.6511 11.6736 18.3519 11.9727 18.3519 12.3418C18.3519 12.7109 18.6511 13.0101 19.0202 13.0101Z" fill="#FFDB6F"/>
<path d="M17.2883 12.3426L16.2435 14.1621H7.75634L6.71155 12.3426H17.2883Z" fill="#6F6F6F"/>
<path d="M5.99165 11.8746C5.97589 11.8506 5.95864 11.8273 5.93988 11.8041C5.93988 11.8041 5.83861 11.4658 5.2416 11.2393C4.8816 11.1028 4.53732 10.928 4.20057 10.7405C4.01533 10.637 3.79557 10.5328 3.55856 10.4585C2.62403 10.166 1.67829 10.9512 1.85604 11.9143C1.86131 11.942 1.8673 11.9691 1.8733 11.9968C1.94455 12.2885 2.16204 12.5211 2.44029 12.6328C2.92631 12.8278 3.88331 13.1646 5.04586 13.3288C5.84987 13.4428 6.44466 12.5473 5.99165 11.8746Z" fill="white"/>
<path d="M3.61029 15.8489H2.31799C2.19724 15.8489 2.09973 15.9464 2.09973 16.0672V17.3595C2.09973 17.5537 2.33525 17.6512 2.47249 17.514L3.76479 16.2217C3.90203 16.0844 3.80452 15.8489 3.61029 15.8489Z" fill="#FFE21F"/>
<path d="M20.6041 18.1042C19.2586 15.7761 17.7113 15.8489 17.7113 15.8489H6.28781C6.28781 15.8489 4.74129 15.7761 3.39499 18.1042H1.06921L1.09774 18.4042C1.12398 18.6862 1.3595 18.9 1.64147 18.9H22.3584C22.6405 18.9 22.8759 18.6862 22.9022 18.4042L22.9308 18.1042L20.6041 18.1042Z" fill="#777777"/>
<path d="M1.6505 18.9007C1.37298 18.9007 1.13973 18.6922 1.10826 18.417C1.02652 17.7022 0.826242 16.4512 0.724243 15.8264V20.3438C0.724243 20.8546 1.13823 21.2693 1.64978 21.2693H3.21129C3.72206 21.2693 4.13682 20.8553 4.13682 20.3438V18.9008H1.6505V18.9007Z" fill="#454545"/>
<path d="M2.09975 8.29472V7.84998C2.09975 7.4502 1.77572 7.12622 1.37672 7.12622H0.752733C0.408498 7.12622 0.0927349 7.35425 0.0177099 7.69022C-0.0580403 8.02846 0.115213 8.36675 0.42271 8.50698C0.765447 8.66375 1.13748 8.74473 1.51401 8.74473H2.24154L2.43127 8.29395H2.09975V8.29472Z" fill="#ED6262"/>
<path d="M3.14891 12.5338C3.65137 12.5338 4.05869 12.1265 4.05869 11.6241C4.05869 11.1216 3.65137 10.7143 3.14891 10.7143C2.64646 10.7143 2.23914 11.1216 2.23914 11.6241C2.23914 12.1265 2.64646 12.5338 3.14891 12.5338Z" fill="#FFBD49"/>
<path d="M4.98052 13.0101C5.34959 13.0101 5.64878 12.7109 5.64878 12.3418C5.64878 11.9727 5.34959 11.6736 4.98052 11.6736C4.61145 11.6736 4.31226 11.9727 4.31226 12.3418C4.31226 12.7109 4.61145 13.0101 4.98052 13.0101Z" fill="#FFDB6F"/>
<path d="M16.8368 16.4856H7.16304C7.01154 16.4856 6.88928 16.6086 6.88928 16.7594C6.88928 16.9109 7.01154 17.0332 7.16304 17.0332H16.836C16.9875 17.0332 17.1098 16.9102 17.1098 16.7594C17.1105 16.6079 16.9875 16.4856 16.8368 16.4856Z" fill="#6F6F6F"/>
<path d="M16.8368 17.5784H7.16304C7.01154 17.5784 6.88928 17.7014 6.88928 17.8522C6.88928 18.0037 7.01154 18.126 7.16304 18.126H16.836C16.9875 18.126 17.1098 18.003 17.1098 17.8522C17.1105 17.7007 16.9875 17.5784 16.8368 17.5784Z" fill="#6F6F6F"/>
<path d="M20.3079 6.38143V6.47517C20.3079 6.85242 19.9981 7.15469 19.6133 7.13894C19.2586 7.11646 18.9871 6.7992 18.9871 6.43693V5.09141C18.9871 4.77415 18.7231 4.53264 18.4058 4.5409C18.3983 4.5409 18.3983 4.5409 18.3908 4.5409C18.3908 4.5409 18.3908 4.5409 18.3834 4.5409C18.0661 4.53341 17.8021 4.77492 17.8021 5.09141V6.30868C17.8021 6.68593 17.4774 6.98821 17.1001 6.96496C16.7453 6.94997 16.4738 6.62522 16.4738 6.27044V5.21216C16.4738 4.8949 16.2099 4.63091 15.8851 4.63091H15.8401C15.5378 4.63091 15.2888 4.87992 15.2888 5.18219V6.55846C15.2888 6.93571 14.9716 7.23721 14.5868 7.22223C14.232 7.19975 13.968 6.88249 13.968 6.52022V4.67514C13.968 4.38113 13.7115 4.13213 13.4093 4.15461H13.3643C13.0545 4.15461 12.8063 4.40361 12.8063 4.70589V6.5922C12.8063 6.95447 12.5123 7.25597 12.1425 7.25597C11.7877 7.25597 11.4937 6.96945 11.4862 6.61473V5.03147C11.4862 4.6692 11.2147 4.35271 10.86 4.32946C10.4752 4.31447 10.1655 4.61598 10.1655 4.99323L10.158 6.45578C10.158 6.83303 9.84896 7.13454 9.46345 7.11955C9.11544 7.0978 8.85145 6.7918 8.84091 6.44529V4.72914C8.84091 4.37287 8.57315 4.05411 8.21688 4.03313C7.83513 4.01664 7.52009 4.31737 7.52009 4.6954V6.4932C7.5096 6.86146 7.20061 7.15469 6.82181 7.13971C6.46703 7.11723 6.20304 6.79997 6.20304 6.4377V5.09141C6.20304 4.77415 5.93156 4.53264 5.6143 4.5409C5.60681 4.5409 5.60681 4.5409 5.60681 4.5409C5.59931 4.5409 5.59931 4.5409 5.59931 4.5409C5.27456 4.53341 5.01057 4.77492 5.01057 5.09141V6.30868C5.01057 6.68593 4.69331 6.98821 4.31606 6.96496C3.98753 6.95219 3.74302 6.67771 3.70106 6.35968C3.35228 7.08194 3.00655 7.86419 2.67053 8.69972C8.87765 9.18873 15.1141 9.18873 21.3212 8.69972C20.9866 7.86197 20.6476 7.08943 20.3079 6.38143Z" fill="#3AA2EB"/>
</g>
<defs>
<clipPath id="clip0">
<rect width="24" height="24" fill="white"/>
</clipPath>
</defs>
</svg>
