<svg width="24" height="23" viewBox="0 0 24 23" fill="none" xmlns="http://www.w3.org/2000/svg">
<g clip-path="url(#clip0)">
<path d="M12 0.00159073C18.6278 0.00159073 24 5.10411 24 11.3991C24 17.6941 18.6278 22.7973 12 22.7973C5.37225 22.7973 0 17.6941 0 11.3991C0 5.10411 5.37225 0.00159073 12 0.00159073Z" fill="#EBEBEB"/>
<path d="M17.25 10.688H12.75V5.70019C12.75 5.30626 12.414 4.98784 12 4.98784C11.586 4.98784 11.25 5.30626 11.25 5.70019V11.3989C11.25 11.7929 11.586 12.1113 12 12.1113H17.25C17.6648 12.1113 18 11.7929 18 11.3989C18 11.0072 17.6648 10.688 17.25 10.688Z" fill="#324D5B"/>
<path d="M12 0.00159073C5.37225 0.00159073 0 5.10411 0 11.3991C0 17.6941 5.37225 22.7973 12 22.7973C18.6278 22.7973 24 17.6941 24 11.3991C24 5.10411 18.6278 0.00159073 12 0.00159073ZM12 20.6603C6.624 20.6603 2.25 16.5059 2.25 11.3991C2.25 6.29301 6.624 2.13862 12 2.13862C17.376 2.13862 21.75 6.29301 21.75 11.3991C21.75 16.5059 17.376 20.6603 12 20.6603Z" fill="#E2574C"/>
</g>
<defs>
<clipPath id="clip0">
<rect width="24" height="22.8" fill="white"/>
</clipPath>
</defs>
</svg>
