<svg width="24" height="23" viewBox="0 0 24 23" fill="none" xmlns="http://www.w3.org/2000/svg">
<path d="M13.6758 13.7201C14.9911 13.7201 16.2525 13.2237 17.1826 12.3401C18.1127 11.4566 18.6352 10.2582 18.6352 9.00867C18.6352 7.75913 18.1127 6.56076 17.1826 5.6772C16.2525 4.79364 14.9911 4.29726 13.6758 4.29726H6.375V5.72226H8.24733V12.2951H6.375V13.7201H8.24733V15.675H6.375V17.1H8.24733V19.5937H9.74733V17.1H14.25V15.675H9.74733V13.7201H13.6758ZM9.74733 5.72226H13.6758C14.1301 5.72226 14.5799 5.80727 14.9996 5.97243C15.4193 6.13758 15.8007 6.37966 16.1219 6.68483C16.4432 6.99 16.698 7.35229 16.8718 7.75102C17.0457 8.14974 17.1352 8.57709 17.1352 9.00867C17.1352 9.44025 17.0457 9.8676 16.8718 10.2663C16.698 10.665 16.4432 11.0273 16.1219 11.3325C15.8007 11.6377 15.4193 11.8798 14.9996 12.0449C14.5799 12.2101 14.1301 12.2951 13.6758 12.2951H9.74733V5.72226Z" fill="black"/>
</svg>
