<svg width="24" height="24" viewBox="0 0 24 24" fill="none" xmlns="http://www.w3.org/2000/svg">
<g clip-path="url(#clip0)">
<path d="M17.885 21.6049H6.0199V22.807H17.885V21.6049Z" fill="#344A5E"/>
<path d="M6.37896 24H3.74292L8.16098 15.6474H10.797L6.37896 24Z" fill="#415A6B"/>
<path d="M17.6211 24H20.2571L15.839 15.6474H13.203L17.6211 24Z" fill="#415A6B"/>
<path d="M19.1855 0.750739C14.4475 -0.250287 9.5524 -0.250287 4.81437 0.750739C3.70985 0.988256 2.82484 2.14125 2.82385 3.24775V18.4629C2.82385 19.5714 3.72635 20.4734 4.83936 20.4784H19.16C20.2745 20.4734 21.1755 19.5714 21.1755 18.4629V3.24775C21.175 2.14125 20.29 0.987225 19.1855 0.750739Z" fill="#F3705A"/>
<path d="M20.1641 3.5338V3.2488C20.1631 2.59231 19.5956 1.8738 18.9766 1.73978C16.6866 1.25678 14.34 1.01129 12 1.01129C9.65998 1.01129 7.31246 1.25631 5.02643 1.7388C4.40341 1.8738 3.83594 2.59231 3.83594 3.24781V3.5338C3.83589 3.5338 20.1641 3.5338 20.1641 3.5338Z" fill="#F05540"/>
<path d="M18.8914 16.9649C18.8914 17.6564 18.3319 18.2159 17.6404 18.2159C16.9499 18.2159 16.3894 17.6564 16.3894 16.9649C16.3894 16.2744 16.9499 15.7139 17.6404 15.7139C18.3319 15.7139 18.8914 16.2744 18.8914 16.9649Z" fill="#344A5E"/>
<path d="M7.60932 16.9649C7.60932 17.6564 7.04981 18.2159 6.3583 18.2159C5.66778 18.2159 5.10828 17.6564 5.10828 16.9649C5.10828 16.2744 5.66778 15.7139 6.3583 15.7139C7.04981 15.7139 7.60932 16.2744 7.60932 16.9649Z" fill="#344A5E"/>
<path d="M21.176 13.0994H15.3595C15.2245 13.0994 15.096 13.1519 15.002 13.2469L11.9999 16.2469L8.9989 13.2469C8.90341 13.1524 8.7754 13.0994 8.64039 13.0994H2.82385V14.1099H8.43142L11.6424 17.3199C11.7409 17.4184 11.8699 17.4674 12 17.4674C12.13 17.4674 12.2589 17.4185 12.3575 17.3199L15.5685 14.1099H21.1761V13.0994H21.176Z" fill="#FFD15C"/>
<path d="M11.825 2.30529C11.825 2.75079 11.4645 3.1108 11.0195 3.1108C10.575 3.1108 10.214 2.75028 10.214 2.30529C10.214 1.8603 10.575 1.49978 11.0195 1.49978C11.465 1.49978 11.825 1.86025 11.825 2.30529Z" fill="#F3F3F3"/>
<path d="M13.7851 2.30529C13.7851 2.75079 13.4246 3.1108 12.9796 3.1108C12.5346 3.1108 12.1741 2.75028 12.1741 2.30529C12.1741 1.8603 12.5341 1.49978 12.9796 1.49978C13.4251 1.49978 13.7851 1.86025 13.7851 2.30529Z" fill="#F3F3F3"/>
<path d="M10.7766 5.16478H5.19253C4.75504 5.16478 4.39954 5.5193 4.39954 5.95679V10.7478C4.39954 11.1864 4.75504 11.5408 5.19253 11.5408H10.7766C11.2141 11.5408 11.5696 11.1863 11.5696 10.7478V5.95679C11.5696 5.5193 11.2141 5.16478 10.7766 5.16478Z" fill="#F3F3F3"/>
<path d="M18.8067 5.16478H13.2237C12.7851 5.16478 12.4307 5.5193 12.4307 5.95679V10.7478C12.4307 11.1864 12.7852 11.5408 13.2237 11.5408H18.8067C19.2452 11.5408 19.5997 11.1863 19.5997 10.7478V5.95679C19.5997 5.5193 19.2452 5.16478 18.8067 5.16478Z" fill="#F3F3F3"/>
</g>
<defs>
<clipPath id="clip0">
<rect width="24" height="24" fill="white"/>
</clipPath>
</defs>
</svg>
