<svg width="50" height="50" viewBox="0 0 50 50" fill="none" xmlns="http://www.w3.org/2000/svg">
<g clip-path="url(#clip0)">
<path d="M42.6841 7.34638C37.9665 2.62871 31.6941 0.0305634 25.0223 0.0305634C18.3506 0.0305634 12.0782 2.62871 7.36052 7.34638C2.64285 12.064 0.0447998 18.3364 0.0447998 25.0081C0.0447998 31.6798 2.64294 37.9522 7.36052 42.6699C12.0781 47.3876 18.3506 49.9856 25.0223 49.9856C31.6941 49.9856 37.9665 47.3875 42.6841 42.6699C47.4018 37.9523 50 31.6799 50 25.0081C50 18.3363 47.4018 12.0641 42.6841 7.34638Z" fill="#A8EEFC"/>
<path d="M42.6842 7.34638C37.9665 2.62871 31.6942 0.0305634 25.0224 0.0305634C24.3125 0.0305634 23.6077 0.0618134 22.9083 0.119919C28.7827 0.609079 34.2403 3.13056 38.4561 7.34628C43.1738 12.064 45.7719 18.3363 45.7719 25.0081C45.7719 31.6799 43.1738 37.9522 38.4561 42.6699C34.2404 46.8856 28.7827 49.407 22.9083 49.8962C23.6077 49.9545 24.3125 49.9856 25.0224 49.9856C31.6942 49.9856 37.9665 47.3875 42.6842 42.6699C47.4019 37.9523 50 31.68 50 25.0082C50 18.3364 47.4019 12.0641 42.6842 7.34638Z" fill="#7EE5F2"/>
<path d="M49.4911 20.1927C48.6272 15.7547 46.5609 11.6269 43.5157 8.25527C40.4895 4.90469 36.6215 2.43584 32.3302 1.11553C32.129 1.05361 31.9106 1.08135 31.7312 1.19189C30.3476 2.04404 29.4283 2.67744 28.9211 3.12832C28.493 3.50889 28.2836 4.00225 28.3156 4.55498C28.3642 5.39258 28.9927 6.23984 29.648 6.90449C27.3683 7.10918 23.544 7.69746 21.3235 9.38457C19.8643 10.4932 19.3214 11.482 19.71 12.3235C20.2983 13.5979 22.7416 13.662 27.8797 12.538C32.0254 11.6311 34.3075 12.6629 34.7726 13.5265C34.9251 13.8098 34.8283 13.9621 34.7136 14.0739C33.9204 14.8463 30.766 15.1568 26.6763 14.8646C24.6716 14.7213 23.8827 15.6049 22.7929 16.8279C22.3483 17.3268 21.8444 17.8921 21.1426 18.5472C19.6294 19.9595 19.6171 21.1767 19.8733 21.949C20.3728 23.4551 22.2721 24.4646 25.2216 24.7919C28.4099 25.1456 29.9957 26.6209 30.2122 29.4348C30.3011 30.5915 29.9547 31.202 29.5161 31.9752C29.2507 32.4432 28.9498 32.9736 28.7462 33.6522C28.1714 35.5684 28.532 38.8068 31.1334 40.0075C31.5159 40.1841 31.9059 40.2613 32.2963 40.2613C34.3977 40.2613 36.5092 38.0224 37.4997 36.972C37.6007 36.8648 37.6878 36.7725 37.7587 36.6999C38.3649 36.0815 38.572 34.7984 38.8411 32.7585C38.957 31.8795 39.0884 30.8832 39.2538 30.4974C39.5473 29.8127 41.5673 27.9948 42.9078 26.9228C43.0725 26.7912 43.1723 26.5949 43.1819 26.3843C43.1915 26.1736 43.1098 25.9692 42.9576 25.823C42.942 25.808 41.3775 24.3006 39.9995 22.5812C38.0228 20.1141 37.8297 18.9542 38.0274 18.6578C38.4207 18.068 38.7435 17.9722 38.9519 17.9516C39.9966 17.8485 41.7891 19.506 43.0454 20.7622C44.3176 22.0346 46.3377 22.118 49.049 21.0102C49.373 20.8779 49.5579 20.5357 49.4911 20.1927Z" fill="#4CE166"/>
<path d="M49.4912 20.1927C48.6272 15.7547 46.561 11.6269 43.5158 8.25527C40.4896 4.90469 36.6216 2.43584 32.3303 1.11553C32.1291 1.05361 31.9106 1.08135 31.7313 1.19189C31.2651 1.479 30.8528 1.74072 30.4902 1.97949C33.4126 3.21699 36.0982 5.01826 38.41 7.33008C42.3617 11.2818 44.825 16.3246 45.5212 21.779C46.5214 21.8178 47.6998 21.5616 49.0496 21.0102C49.3731 20.8779 49.558 20.5357 49.4912 20.1927Z" fill="#44C868"/>
<path d="M23.128 48.7584C22.5648 47.701 19.5773 42.4076 15.9635 41.8855C15.8291 41.8661 15.7023 41.8478 15.597 41.465C15.4759 41.0242 15.4635 40.3529 15.4492 39.5758C15.4191 37.9482 15.3817 35.9228 14.3695 33.9707C13.1717 31.6608 11.2158 31.6102 9.92151 31.5766C8.62415 31.543 8.53333 31.4875 8.53333 30.7291C8.53333 27.6779 5.22005 24.9463 0.826398 24.375C0.617218 24.3478 0.406085 24.4123 0.247785 24.552C0.0893862 24.6917 -0.000750468 24.893 0.000128438 25.1041C0.0274722 31.3054 2.3428 37.2421 6.51976 41.8209C10.6691 46.3695 16.3132 49.2172 22.4122 49.8395C22.4372 49.842 22.4621 49.8433 22.4868 49.8433C22.7643 49.8433 23.0209 49.6855 23.1445 49.4324C23.2503 49.2148 23.2407 48.9636 23.128 48.7584Z" fill="#4CE166"/>
<path d="M18.0086 14.2437C17.7393 13.615 17.3256 13.1899 16.7792 12.9804C15.6491 12.5471 14.2945 13.174 12.9848 13.7803C12.7116 13.9066 12.4291 14.0374 12.1614 14.1521C9.86942 15.1341 8.32011 19.0126 9.30321 21.3073C9.57196 21.9348 9.99257 22.3646 10.5532 22.5849C10.8462 22.7 11.1548 22.7496 11.4748 22.7496C12.4933 22.7495 13.6262 22.2474 14.7304 21.7577C14.9266 21.6708 15.1207 21.5847 15.3106 21.5033C16.3975 21.0377 17.3386 19.8839 17.8924 18.3378C18.4257 16.8492 18.469 15.3188 18.0086 14.2437Z" fill="#49C158"/>
<path d="M34.5486 14.0457C36.6429 14.0457 38.3406 12.3479 38.3406 10.2536C38.3406 8.1593 36.6429 6.46152 34.5486 6.46152C32.4542 6.46152 30.7565 8.1593 30.7565 10.2536C30.7565 12.3479 32.4542 14.0457 34.5486 14.0457Z" fill="white"/>
<path d="M34.5489 0.0142555C28.9028 0.0142555 24.3093 4.60771 24.3093 10.2538C24.3093 13.7464 25.9663 17.4962 29.2339 21.3988C31.6339 24.2652 34.0014 26.1088 34.1009 26.1859C34.2329 26.2879 34.3909 26.339 34.5489 26.339C34.7069 26.339 34.8649 26.2879 34.9968 26.1859C35.0963 26.1088 37.4638 24.2653 39.8638 21.3988C43.1314 17.4961 44.7883 13.7464 44.7883 10.2538C44.7883 4.60771 40.195 0.0142555 34.5489 0.0142555ZM38.341 10.2538C38.341 12.348 36.6431 14.0459 34.5489 14.0459C32.4546 14.0459 30.7568 12.348 30.7568 10.2538C30.7568 8.15957 32.4545 6.46172 34.5489 6.46172C36.6431 6.46172 38.341 8.15947 38.341 10.2538Z" fill="#FF4A4A"/>
<path d="M34.5489 0.0142555C33.9733 0.0142555 33.4088 0.0627907 32.8587 0.15449C37.7034 0.962595 41.4081 5.1833 41.4081 10.2538C41.4081 13.7464 39.7511 17.4962 36.4835 21.3988C35.1317 23.0134 33.7904 24.3033 32.8586 25.1359C33.5811 25.7815 34.0573 26.1523 34.1007 26.186C34.2327 26.288 34.3907 26.3391 34.5487 26.3391C34.7067 26.3391 34.8647 26.288 34.9966 26.186C35.0961 26.1089 37.4636 24.2654 39.8636 21.3989C43.1312 17.4962 44.7881 13.7465 44.7881 10.2539C44.7883 4.60771 40.195 0.0142555 34.5489 0.0142555Z" fill="#E7343F"/>
</g>
<defs>
<clipPath id="clip0">
<rect width="50" height="50" fill="white"/>
</clipPath>
</defs>
</svg>
